<svg xmlns="http://www.w3.org/2000/svg" viewBox="0 0 1000.18 617.95"><defs><style>.a{fill:#1a1a1a;}.b{fill:#fff;fill-rule:evenodd;}</style></defs><path class="a" d="M958.43,41.86C924.56,8.26,879.13.05,813.7.05H185.35C120.94.05,75,8.52,41.39,42.12,8,75.72-.18,120.61-.18,185.51v246c0,65.93,8,111.07,41.57,144.42C75.26,609.53,120.68,618,186.12,618H813.7c65.43,0,111.12-8.47,144.73-42.07S1000,497.44,1000,431.51V186.28C1000,120.61,992.05,75.21,958.43,41.86Z" transform="translate(0.18 -0.05)"/><path class="b" d="M399.28,237.33c2.39-1.86,6.78.5,10.55-1.51s7.54-2.52,9.05-1.26,3.51,3,10,2.77,11.8,2.26,14.56,1.51,2.77-2,7.79-1,15.08,4.28,16.59,5.29,6.27,3.79,3.26,7.56-4.53,5.29-5,9.32.76,9.06-.75,8.06-7.79-8.06-6.78-6.05-.51,7.55,5,9.83,7,4.78,13.07,5.28,13.73,5.55,23.06,3.53,24.91-10.08,36.46-9.58,15.32,4.54,21.35-.75,18.84-21.66,18.84-28.21-3.77-14.36-7-16.62-15.58-13.6-13.31-16.38,8.79-1.76,15.57,1.51,26.87,11.09,20.85,30-19.35,33-18.09,38.3,9,14.61,9.8,19.39,1.76,20.4,3.51,27.7,0,13.36,4,18.64,6.78,12.85,6.78,15.62,4.28,12.84,4.78,16.62a21.81,21.81,0,0,1-2,11.59c-1.51,2.77-7.79,3.27-10.56,3.53s-6.27-3.53-4.26-5,3-2.28,3.27-4.78-.51-7.81-2.27-12.35-2-9.75-7.78-13.82-8.29-9.61-9-7.09-.5,6.8-1,10.59,1,7.3,1,10.57-.5,7.3-3.52,7.56-10.8,2.26-12.55-.26-3-3.52-.51-5.53,5-5.54,4-9.82-1-8.81-5-12.1a104.92,104.92,0,0,1-11.81-11.58c-1.25-1.77-2-1-6.53.51s-17.83,4-24.36,6-13.32,5-16.08,5-3.26.51-3.26,2.26-2,22.43-2.51,24.95,0,12.11.75,14.87,2.76,9.56,2,12.84-7.79,5-11,5.29-9.29,1.51-9.8-2.53-.25-5.28,1.26-7.3,1.51-8.06,1.25-14.86.51-11.6-.5-17.39,1.26-11.76-3.52-12.06-11.55,1-14.31,0-5,3.25-5.28,7.79.25,16.62.25,20.9-.75,11.59-1,14.11-3.52,6.8-6.53,7-12.81.51-13.06-1.5-3.52-5-1.51-7.05,4-1.51,4.27-5.29,0-15.63,0-20.91-1-18.13-1.26-21.66-4.26-11.58-4.26-20.65a152.46,152.46,0,0,0-1.77-20.9c-.5-4,.51-10.59-2-11.34s-8.54-1-11.56-3.28a12.08,12.08,0,0,1-5-10.57c.26-4.78,3.27-8.82,3.52-10.83s-1.26-6.8-1.76-8.57,1.76-9.82.25-10.83-4,.5-4.77,2.52-4.27,8.06-4.78,6.55,1.51-2.77,1.26-5.29-1.51-3.78-2.51-7.56S397,239.08,399.28,237.33Z" transform="translate(0.18 -0.05)"/></svg>