<svg xmlns="http://www.w3.org/2000/svg" viewBox="0 0 1000.18 617.95"><defs><style>.a{fill:#5e5ce6;}.b,.c{fill:#ffd60a;}.b{fill-rule:evenodd;}</style></defs><path class="a" d="M958.43,41.86C924.56,8.26,879.13.05,813.7.05H185.35C120.94.05,75,8.52,41.39,42.12,8,75.72-.18,120.61-.18,185.51v246c0,65.93,8,111.07,41.57,144.42C75.26,609.53,120.68,618,186.12,618H813.7c65.43,0,111.12-8.47,144.73-42.07S1000,497.44,1000,431.51V186.28C1000,120.61,992.05,75.21,958.43,41.86Z" transform="translate(0.18 -0.05)"/><path class="b" d="M399.28,162.33c2.39-1.86,6.78.5,10.55-1.51s7.54-2.52,9.05-1.26,3.51,3,10,2.77,11.8,2.26,14.56,1.51,2.77-2,7.79-1,15.08,4.28,16.59,5.29,6.27,3.79,3.26,7.56-4.53,5.29-5,9.32.76,9.06-.75,8.06-7.79-8.06-6.78-6.05-.51,7.55,5,9.83,7,4.78,13.07,5.28,13.73,5.55,23.06,3.53,24.91-10.08,36.46-9.58,15.32,4.54,21.35-.75,18.84-21.66,18.84-28.21-3.77-14.36-7-16.62-15.58-13.6-13.31-16.38,8.79-1.76,15.57,1.51,26.87,11.09,20.85,30-19.35,33-18.09,38.3,9,14.61,9.8,19.39,1.76,20.4,3.51,27.7,0,13.36,4,18.64,6.78,12.85,6.78,15.62,4.28,12.84,4.78,16.62a21.81,21.81,0,0,1-2,11.59c-1.51,2.77-7.79,3.27-10.56,3.53s-6.27-3.53-4.26-5,3-2.28,3.27-4.78-.51-7.81-2.27-12.35-2-9.75-7.78-13.82-8.29-9.61-9-7.09-.5,6.8-1,10.59,1,7.3,1,10.57-.5,7.3-3.52,7.56-10.8,2.26-12.55-.26-3-3.52-.51-5.53,5-5.54,4-9.82-1-8.81-5-12.1a104.92,104.92,0,0,1-11.81-11.58c-1.25-1.77-2-1-6.53.51s-17.83,4-24.36,6-13.32,5-16.08,5-3.26.51-3.26,2.26-2,22.43-2.51,24.95,0,12.11.75,14.87,2.76,9.56,2,12.84-7.79,5-11,5.29-9.29,1.51-9.8-2.53-.25-5.28,1.26-7.3,1.51-8.06,1.25-14.86.51-11.6-.5-17.39,1.26-11.76-3.52-12.06-11.55,1-14.31,0-5,3.25-5.28,7.79.25,16.62.25,20.9-.75,11.59-1,14.11-3.52,6.8-6.53,7-12.81.51-13.06-1.5-3.52-5-1.51-7.05,4-1.51,4.27-5.29,0-15.63,0-20.91-1-18.13-1.26-21.66-4.26-11.58-4.26-20.65a152.46,152.46,0,0,0-1.77-20.9c-.5-4,.51-10.59-2-11.34s-8.54-1-11.56-3.28a12.08,12.08,0,0,1-5-10.57c.26-4.78,3.27-8.82,3.52-10.83s-1.26-6.8-1.76-8.57,1.76-9.82.25-10.83-4,.5-4.77,2.52-4.27,8.06-4.78,6.55,1.51-2.77,1.26-5.29-1.51-3.78-2.51-7.56S397,164.08,399.28,162.33Z" transform="translate(0.18 -0.05)"/><path class="c" d="M359.24,494.16a3.79,3.79,0,0,1-.9-.09,1.38,1.38,0,0,1-1-1,3.79,3.79,0,0,1-.09-.9v-124h15.12a1.79,1.79,0,0,1,1.08.27,2.48,2.48,0,0,1,.63.72,1.89,1.89,0,0,1,.27,1V479h44.82a11.13,11.13,0,0,1,5,1.08,9.83,9.83,0,0,1,3.6,3.06,17.08,17.08,0,0,1,2.34,4.68,29.21,29.21,0,0,1,1.26,6.3Zm56.52-32.76h13.68a1.89,1.89,0,0,1,1,.27,2.07,2.07,0,0,1,.72.72,1.89,1.89,0,0,1,.27,1v30.78a28.06,28.06,0,0,1-9.54-1.89,9.41,9.41,0,0,1-4.77-4.14,13.36,13.36,0,0,1-1.35-6.21V461.4Z" transform="translate(0.18 -0.05)"/><path class="c" d="M470.66,468.6q0,6.12,3.51,9.27T484.7,481a40.82,40.82,0,0,0,11.61-1.62A34.3,34.3,0,0,0,507,473.91a62.21,62.21,0,0,0,10.8-10.71v15.66H512.6a33.18,33.18,0,0,1-7.47,9.36A30.56,30.56,0,0,1,494.78,494a41.36,41.36,0,0,1-13.14,2,31.49,31.49,0,0,1-14.58-3.15,23.37,23.37,0,0,1-9.54-8.82,25.83,25.83,0,0,1-3.42-13.59v-5.76a27.7,27.7,0,0,1,2-10.71,21.4,21.4,0,0,1,5.67-8,26.34,26.34,0,0,1,8.91-5,35.74,35.74,0,0,1,11.7-1.8h35.46a2.32,2.32,0,0,1,2.25,1.89,18.57,18.57,0,0,1,.81,4.59q.18,2.7.18,5.22H484.7a21.79,21.79,0,0,0-6.39.81,9.75,9.75,0,0,0-4.41,2.79,8.83,8.83,0,0,0-2.43,3.69,15.09,15.09,0,0,0-.81,5.13ZM531,431v40.5a15,15,0,0,0,.45,4,5.61,5.61,0,0,0,1.35,2.52,4.91,4.91,0,0,0,2.16,1.26,11.27,11.27,0,0,0,3.06.36h4.5v12.6a1.89,1.89,0,0,1-.54,1.53,2.18,2.18,0,0,1-1.44.45h-6.3a23.27,23.27,0,0,1-7.74-1.26,17.68,17.68,0,0,1-6.3-3.78,16.62,16.62,0,0,1-4.14-6.21,24,24,0,0,1-1.44-8.73V430.8q0-7.2-2.07-11.25a11.77,11.77,0,0,0-6.93-5.76q-4.86-1.71-13.14-1.71a91.27,91.27,0,0,0-10.08.54,69.11,69.11,0,0,0-9.45,1.71,82.81,82.81,0,0,0-9.27,3h-2.7v-13a2,2,0,0,1,.18-.9,2.09,2.09,0,0,1,.36-.54q.9-1.08,5.49-2.52a90,90,0,0,1,11.34-2.61,82.65,82.65,0,0,1,14.13-1.17,69.89,69.89,0,0,1,17.37,1.89,28.54,28.54,0,0,1,12,6,24.66,24.66,0,0,1,6.93,10.62A48.64,48.64,0,0,1,531,431Z" transform="translate(0.18 -0.05)"/><path class="c" d="M575.06,494.16h-6.84a1.89,1.89,0,0,1-1-.27,2.48,2.48,0,0,1-.72-.63,1.79,1.79,0,0,1-.27-1.08v-133h14.58a1.79,1.79,0,0,1,1.08.27,3.13,3.13,0,0,1,.63.63,1.79,1.79,0,0,1,.27,1.08v116.1q-.9,3.6-1.53,6t-1.26,5q-.63,2.61-1.71,5.85Zm3.6-14.76L580.1,461q6.48,10.62,14,14.85a31,31,0,0,0,15.3,4.23,19.83,19.83,0,0,0,10.44-2.61,17.41,17.41,0,0,0,6.75-7.83,29.21,29.21,0,0,0,2.43-12.42v-23a31.07,31.07,0,0,0-1.44-10,17.66,17.66,0,0,0-4.14-6.93,16.09,16.09,0,0,0-6-3.78,23.63,23.63,0,0,0-8-1.26,25.82,25.82,0,0,0-10.26,2.16,32.74,32.74,0,0,0-9.72,6.66,58.25,58.25,0,0,0-9,11.52V413.16h4.86a43.64,43.64,0,0,1,7.74-9,30.92,30.92,0,0,1,9.63-5.76,34.42,34.42,0,0,1,24.21.45,27.62,27.62,0,0,1,9.9,7,31.94,31.94,0,0,1,6.39,11.07,44.87,44.87,0,0,1,2.25,14.76v28.08a47.12,47.12,0,0,1-2.25,15.12,32.83,32.83,0,0,1-6.48,11.43,27.5,27.5,0,0,1-10,7.2,33,33,0,0,1-13,2.43,34.57,34.57,0,0,1-11.34-1.8,30.32,30.32,0,0,1-9.63-5.49,44.53,44.53,0,0,1-8.19-9.27Z" transform="translate(0.18 -0.05)"/></svg>