<svg xmlns="http://www.w3.org/2000/svg" viewBox="0 0 1000.18 617.95"><defs><style>.a{fill:#3ea69f;}.b,.c{fill:#fff;}.c{fill-rule:evenodd;}</style></defs><path class="a" d="M958.43,41.86C924.56,8.26,879.13.05,813.7.05H185.35C120.94.05,75,8.52,41.39,42.12,8,75.72-.18,120.61-.18,185.51v246c0,65.93,8,111.07,41.57,144.42C75.26,609.53,120.68,618,186.12,618H813.7c65.43,0,111.12-8.47,144.73-42.07S1000,497.44,1000,431.51V186.28C1000,120.61,992.05,75.21,958.43,41.86Z" transform="translate(0.18 -0.05)"/><path class="b" d="M466.69,427.83q3,1.07,3.05,10.14,0,1.88,1,11.13-.47,7.09-.47,13.65v8.62c0,1.76-.5,2.77-1.52,3.05h-1q-4.22,0-20.8-25.84a8.53,8.53,0,0,1-1.52-3.05h-1v4.1a3.8,3.8,0,0,0,.53,2,.47.47,0,0,1-.53.53,57.44,57.44,0,0,1,1,10.14l-.47,1a4.06,4.06,0,0,1,.47,1.53q0,11.6-4,11.6c-1.33-1.68-2-2.68-2-3q0-3,.47-10.67-.47-13.59-.47-16.17c.32-4.06.47-7.11.47-9.14a28.2,28.2,0,0,0-2.52-7.56l2.05-1.52h1q5,0,5,7.09,9.84,18.75,18.22,29.36v.46h1.06l.47-7.09q0-15.35-1-29.35A5.58,5.58,0,0,1,466.69,427.83Z" transform="translate(0.18 -0.05)"/><path class="b" d="M482.16,439.73q19.45,0,19.45,7.91v3.63q-2.1,10.67-15.17,24.9a12.07,12.07,0,0,1-6.1,1.82h-.58q-6.69-4.58-6.68-9.14Q477,439.72,482.16,439.73Zm1.23,5.45a69.39,69.39,0,0,0-5.45,17h-.65q.88,10.95,3.7,11h1.17q8.67-3.75,15.17-20V447a21.3,21.3,0,0,0-6.68-1.81Z" transform="translate(0.18 -0.05)"/><path class="b" d="M519.31,414.59c2,.51,3,1.11,3,1.82a.51.51,0,0,1-.58.58l.58,1.23c-.31,5.28-.72,7.91-1.23,7.91,0,.39.22.59.65.59a106.08,106.08,0,0,0-1.23,12.19c.39,0,.58-.22.58-.65l3,.65H529c.82.11,1.23.51,1.23,1.17q0,2.7-9.72,4.86-1.47,19-3,24.32h1.23q1.69,0,9.73-9.73.34,0,3.63-3.63a.52.52,0,0,0,.59.59q-10,20-17.58,20l-2.46-2.4v-1.81q1.82-8.73,2.46-26.14l-4.28.59h-4.28c-.54,0-1.34-1-2.4-3q0-1.23,11-3.69l1.81-6.68c0-.39-.21-.59-.64-.59Q517.31,414.6,519.31,414.59Z" transform="translate(0.18 -0.05)"/><path class="b" d="M544.91,436.8q6.74,0,9.73,7.26v2.46q0,7.68-15.18,16.41,0,7.86,4.22,7.85,10.08-4.21,14-13.36c-.44,0-.65-.19-.65-.58.24,0,1.25-.8,3.05-2.41h.64c2,1.06,3,1.86,3,2.41v3l-5.45,6.68q-8.32,10.32-14.59,10.32-5,0-8.49-4.87h-.59v-1.23q0-2.16-3.05-10.9l1.23-6.09c0-.39-.21-.59-.64-.59Q532.14,436.8,544.91,436.8Zm-6.68,15.76.59,1.23a5,5,0,0,0-.59,2.46h1.82q3.81-1.58,9.14-8.55c0-3.64-1.43-5.45-4.28-5.45H543.1Q540.81,442.25,538.23,452.56Z" transform="translate(0.18 -0.05)"/><path class="c" d="M399.28,176.91c2.39-1.87,6.78.5,10.55-1.52s7.54-2.52,9.05-1.25,3.51,3,10,2.77,11.8,2.26,14.56,1.51,2.77-2,7.79-1,15.08,4.28,16.59,5.29,6.27,3.78,3.26,7.56-4.53,5.28-5,9.32.76,9.06-.75,8.06-7.79-8.06-6.78-6-.51,7.55,5,9.83,7,4.78,13.07,5.28,13.73,5.55,23.06,3.53,24.91-10.08,36.46-9.58,15.32,4.54,21.35-.75,18.84-21.66,18.84-28.21-3.77-14.36-7-16.63S553.75,151.47,556,148.69s8.79-1.76,15.57,1.51,26.87,11.09,20.85,30-19.35,33-18.09,38.3,9,14.6,9.8,19.38,1.76,20.41,3.51,27.71,0,13.35,4,18.64,6.78,12.85,6.78,15.61,4.28,12.85,4.78,16.63a21.81,21.81,0,0,1-2,11.59c-1.51,2.76-7.79,3.27-10.56,3.53s-6.27-3.53-4.26-5,3-2.28,3.27-4.78-.51-7.81-2.27-12.35-2-9.76-7.78-13.83-8.29-9.6-9-7.08-.5,6.8-1,10.59,1,7.3,1,10.57-.5,7.3-3.52,7.56-10.8,2.26-12.55-.26-3-3.53-.51-5.53,5-5.54,4-9.82-1-8.82-5-12.1a104.92,104.92,0,0,1-11.81-11.58c-1.25-1.77-2-1-6.53.5s-17.83,4-24.36,6-13.32,5-16.08,5-3.26.5-3.26,2.26-2,22.43-2.51,24.95,0,12.11.75,14.87,2.76,9.55,2,12.84-7.79,5-11,5.28-9.29,1.52-9.8-2.52-.25-5.28,1.26-7.3,1.51-8.07,1.25-14.86.51-11.6-.5-17.39,1.26-11.76-3.52-12.06-11.55,1.05-14.31,0-5,3.25-5.28,7.78.25,16.63.25,20.9-.75,11.6-1,14.12-3.52,6.8-6.53,7-12.81.51-13.06-1.5-3.52-5-1.51-7,4-1.52,4.27-5.29,0-15.63,0-20.91-1-18.14-1.26-21.67-4.26-11.57-4.26-20.64a152.46,152.46,0,0,0-1.77-20.9c-.5-4,.51-10.59-2-11.34s-8.54-1-11.56-3.28a12.08,12.08,0,0,1-5-10.57c.26-4.78,3.27-8.82,3.52-10.83s-1.26-6.8-1.76-8.57,1.76-9.83.25-10.83-4,.5-4.77,2.52-4.27,8.06-4.78,6.55,1.51-2.77,1.26-5.29S398,192,397,188.24,397,178.66,399.28,176.91Z" transform="translate(0.18 -0.05)"/></svg>